<?xml version="1.0" standalone="no"?>
<!DOCTYPE svg PUBLIC "-//W3C//DTD SVG 20010904//EN"
 "http://www.w3.org/TR/2001/REC-SVG-20010904/DTD/svg10.dtd">
<svg version="1.0" xmlns="http://www.w3.org/2000/svg"
 width="900.000000pt" height="518.000000pt" viewBox="0 0 900.000000 518.000000"
 preserveAspectRatio="xMidYMid meet">

<g transform="translate(0.000000,518.000000) scale(0.100000,-0.100000)"
fill="#fff" stroke="none">
<path d="M4415 4600 c-127 -18 -371 -79 -424 -106 -14 -8 -32 -14 -39 -14 -19
0 -233 -99 -242 -112 -3 -4 -19 -13 -35 -20 -25 -11 -157 -94 -190 -120 -156
-121 -265 -225 -369 -349 -39 -47 -77 -94 -83 -105 -7 -10 -33 -50 -59 -89
-75 -114 -162 -295 -211 -440 -45 -133 -64 -213 -94 -400 -12 -76 -12 -433 0
-500 5 -27 16 -89 24 -136 24 -139 76 -302 138 -434 21 -44 39 -85 41 -91 2
-6 -85 -82 -192 -169 -334 -271 -398 -326 -342 -296 9 5 58 40 109 78 50 37
101 75 113 83 24 16 182 134 269 199 59 45 78 50 88 24 4 -10 26 -48 50 -84
24 -36 43 -73 43 -81 0 -8 -16 -28 -36 -44 -62 -51 -147 -134 -136 -134 5 0
20 8 33 18 43 33 159 112 168 114 7 3 111 -117 111 -127 0 -2 -35 -31 -77 -65
-109 -86 -130 -102 -157 -125 -13 -11 -36 -30 -52 -42 -86 -67 -175 -138 -203
-163 -9 -9 -50 -42 -91 -75 -41 -32 -83 -66 -92 -74 -9 -9 -36 -32 -60 -52
-89 -75 -113 -98 -102 -99 6 0 22 9 35 21 13 11 83 63 154 114 72 52 136 100
144 107 8 7 20 15 26 18 6 3 49 33 95 68 115 85 250 184 277 202 12 8 51 37
88 63 l66 49 92 -89 c51 -50 106 -98 122 -109 17 -10 35 -24 40 -30 6 -5 44
-32 85 -59 41 -26 86 -56 100 -65 28 -19 202 -106 265 -132 308 -129 721 -182
1035 -134 183 28 377 80 505 134 92 39 266 131 329 174 42 29 164 120 201 150
48 39 232 225 260 263 11 15 27 35 35 44 18 20 85 116 122 174 44 70 160 307
174 356 7 25 20 66 28 91 29 82 55 184 65 255 6 39 14 81 17 95 4 14 9 116 11
228 4 177 2 221 -17 335 -37 224 -89 393 -177 575 -48 100 -53 115 -41 130 69
82 198 379 198 457 0 53 -37 79 -118 81 -108 3 -306 -30 -422 -70 -35 -12 -35
-12 -121 62 -47 40 -98 81 -111 90 -14 9 -57 38 -94 63 -91 61 -246 143 -342
180 -42 17 -86 34 -97 40 -25 12 -100 32 -270 71 -120 27 -147 30 -365 33
-129 2 -262 0 -295 -5z m540 -111 c270 -40 550 -144 750 -279 148 -99 143 -96
212 -158 21 -18 32 -36 27 -40 -5 -5 -43 -21 -84 -37 -41 -16 -118 -51 -170
-79 -101 -52 -128 -69 -260 -161 -23 -16 -53 -37 -65 -45 -12 -8 -40 -30 -63
-48 l-41 -33 -73 34 c-240 114 -485 146 -738 97 -63 -12 -119 -25 -125 -29 -5
-5 -23 -11 -40 -15 -16 -4 -75 -30 -130 -57 -234 -116 -405 -288 -522 -521
-59 -118 -98 -239 -113 -351 -5 -43 -14 -86 -20 -96 -16 -31 26 -337 56 -410
12 -28 12 -37 2 -47 -17 -16 -293 -238 -325 -261 -14 -10 -36 -27 -49 -38 -13
-11 -36 -30 -52 -42 -15 -12 -58 -47 -97 -78 -70 -57 -70 -57 -84 -35 -32 49
-95 220 -140 385 -30 110 -54 317 -53 460 2 136 31 369 59 465 68 235 140 402
233 545 46 71 115 168 134 188 11 13 46 52 77 88 55 62 211 204 262 237 14 10
63 42 109 72 106 71 111 74 183 109 182 90 368 149 555 176 63 9 117 19 119
21 14 14 340 2 466 -17z m1639 -425 c7 -19 -29 -142 -61 -205 -13 -26 -23 -49
-23 -52 0 -7 -132 -241 -139 -247 -3 -3 -33 -45 -66 -95 -75 -113 -332 -375
-451 -460 -15 -11 -50 -38 -78 -60 -28 -22 -61 -47 -72 -55 -12 -8 -50 -35
-85 -59 -35 -25 -66 -48 -69 -51 -3 -4 -18 -15 -35 -24 -16 -9 -42 -24 -57
-34 -32 -21 -203 -117 -280 -157 -45 -23 -58 -35 -62 -59 -7 -32 -44 -132 -78
-206 -63 -138 -122 -243 -210 -373 -59 -87 -170 -218 -246 -291 -65 -62 -84
-74 -75 -49 3 10 10 23 14 28 4 6 20 53 35 105 21 74 27 116 28 190 0 87 -3
102 -31 160 -18 36 -41 76 -52 89 -20 23 -22 23 -55 7 -19 -9 -37 -16 -41 -16
-4 0 -26 -8 -49 -19 -65 -30 -175 -71 -190 -71 -16 0 -136 153 -136 175 0 16
39 75 132 197 32 42 58 81 58 85 0 19 -97 112 -137 132 -80 40 -208 64 -308
58 -49 -3 -100 -9 -112 -13 -34 -10 -28 10 10 29 17 10 50 28 72 42 60 37 220
113 295 140 206 74 365 113 520 126 184 16 173 12 237 86 78 88 231 237 323
314 41 34 80 67 87 73 7 6 23 19 35 28 13 10 52 40 88 67 36 28 76 59 90 69
45 35 161 112 167 112 4 0 14 6 22 14 9 8 51 32 94 55 153 81 355 152 597 209
111 26 285 30 294 6z m-195 -634 c11 -22 34 -77 52 -122 17 -46 37 -97 44
-113 7 -17 18 -58 25 -90 7 -33 16 -67 21 -76 16 -30 49 -324 49 -434 0 -103
-33 -406 -47 -428 -4 -6 -14 -42 -24 -81 -17 -67 -49 -168 -68 -211 -23 -54
-117 -243 -132 -265 -9 -14 -29 -45 -45 -70 -56 -87 -166 -221 -246 -299 -112
-110 -257 -226 -342 -274 -21 -12 -59 -34 -85 -49 -25 -15 -57 -32 -71 -38
-14 -6 -38 -17 -55 -25 -232 -109 -443 -158 -735 -171 -265 -12 -586 44 -787
137 -24 10 -45 19 -49 19 -9 0 -183 89 -212 109 -15 10 -66 44 -114 75 -84 57
-155 115 -249 207 l-47 46 90 64 c49 35 99 72 111 81 59 47 212 158 217 158
10 0 50 67 50 84 0 16 -6 18 -42 12 -35 -6 -69 -26 -135 -81 -7 -5 -23 -18
-35 -27 -13 -10 -85 -68 -162 -129 l-138 -112 -35 39 c-76 85 -81 101 -36 127
11 7 40 26 63 42 24 17 53 37 65 45 12 8 41 29 65 45 23 17 52 35 63 42 11 6
22 15 26 20 3 4 33 26 66 48 33 22 64 44 70 48 38 30 151 107 156 107 4 0 14
-12 24 -26 32 -49 171 -179 243 -227 92 -62 226 -128 320 -157 39 -12 72 -26
72 -30 0 -4 19 -7 43 -7 23 0 95 -4 159 -8 185 -13 372 17 518 81 75 33 162
80 172 91 6 7 15 13 20 13 15 0 138 100 202 165 83 85 174 221 231 345 55 119
95 317 95 470 0 72 -24 273 -35 290 -3 5 34 40 82 79 143 116 173 142 255 226
99 101 94 96 162 184 31 40 56 77 56 82 0 21 20 6 39 -31z m-2761 -1372 c30
-61 37 -84 29 -92 -7 -6 -46 -38 -87 -70 -83 -66 -94 -75 -129 -107 -14 -13
-77 -65 -140 -117 -64 -52 -137 -112 -163 -134 l-46 -38 -46 70 c-25 38 -46
73 -46 76 0 4 -7 15 -16 25 -18 20 -14 25 86 97 30 22 78 57 105 77 28 20 93
69 147 108 53 40 106 79 118 87 12 8 47 34 78 57 31 24 60 43 64 43 4 0 24
-37 46 -82z"/>
<path d="M4530 4350 c0 -3 -2 -103 -5 -222 l-6 -218 170 0 171 0 0 48 0 48
-71 -1 c-121 -2 -129 1 -129 46 l0 39 90 0 90 0 0 45 0 44 -87 3 -88 3 0 35 0
35 93 0 92 0 0 47 0 47 -160 3 c-88 2 -160 1 -160 -2z"/>
<path d="M5111 4277 c-5 -18 -12 -39 -15 -48 -5 -12 7 -21 49 -39 59 -25 63
-34 41 -83 -8 -18 -31 -75 -51 -127 -19 -52 -40 -103 -45 -112 -11 -20 5 -31
76 -53 44 -13 45 -13 58 13 7 15 17 38 21 52 4 14 13 39 20 55 28 62 65 162
65 173 0 7 25 2 65 -13 61 -23 66 -24 71 -8 3 10 11 31 16 46 6 15 9 29 7 30
-10 7 -112 48 -189 76 -47 18 -94 36 -105 41 -67 31 -74 31 -84 -3z"/>
<path d="M4140 4279 c-19 -10 -40 -19 -47 -19 -8 0 -6 -16 7 -56 11 -31 24
-62 28 -68 5 -6 15 -27 22 -46 7 -19 20 -43 28 -53 29 -33 4 -28 -41 10 -54
44 -73 59 -145 113 -40 30 -57 37 -70 30 -9 -5 -41 -19 -69 -31 -29 -12 -53
-28 -53 -35 0 -13 22 -66 61 -149 11 -22 19 -44 19 -49 0 -5 9 -28 19 -50 11
-23 29 -65 41 -93 13 -29 29 -53 36 -53 7 0 33 10 58 22 l44 21 -13 36 c-7 20
-29 71 -48 113 -19 42 -38 87 -42 99 -7 21 -4 21 31 -9 55 -47 78 -65 104 -82
20 -13 88 -66 115 -89 6 -4 17 -4 25 0 8 5 36 18 63 29 46 19 60 43 38 65 -5
6 -25 51 -45 100 -19 50 -51 128 -70 175 -20 46 -36 86 -36 87 0 8 -29 0 -60
-18z"/>
<path d="M3370 3777 c-33 -34 -60 -65 -60 -70 0 -4 51 -97 112 -207 l113 -200
47 48 c26 26 48 51 48 56 0 5 -11 24 -25 42 -14 18 -25 37 -25 43 0 5 18 30
41 54 l40 45 50 -21 51 -22 44 49 c24 27 44 52 44 56 0 8 -23 20 -120 60 -41
17 -88 37 -105 45 -53 24 -119 53 -158 69 l-38 15 -59 -62z m149 -111 l64 -33
-31 -31 -31 -32 -30 45 c-40 59 -53 85 -44 85 4 -1 37 -16 72 -34z"/>
<path d="M3383 3191 c-12 -31 -25 -69 -29 -84 -8 -36 -25 -42 -66 -27 -95 35
-198 72 -235 84 l-41 14 -17 -47 c-32 -89 -32 -86 27 -104 57 -17 150 -50 263
-92 39 -14 78 -29 87 -32 13 -4 20 6 32 44 8 26 26 77 39 113 14 36 32 84 40
107 l16 42 -27 10 c-15 6 -36 15 -47 20 -18 7 -23 2 -42 -48z"/>
<path d="M2995 2759 c-66 -36 -89 -118 -78 -281 l6 -98 146 0 c80 0 179 3 219
7 l72 6 0 66 0 66 -70 -3 c-77 -4 -76 -5 -83 63 -13 120 -56 176 -139 182 -29
1 -62 -2 -73 -8z m111 -165 c24 -58 17 -69 -46 -69 -52 0 -55 2 -58 26 -2 14
2 37 7 52 9 22 17 27 46 27 32 0 38 -4 51 -36z"/>
<path d="M6203 2836 c-20 -17 -37 -50 -57 -110 -29 -87 -45 -106 -67 -80 -13
15 -16 105 -5 140 5 18 0 21 -43 30 l-50 10 -12 -49 c-19 -82 6 -193 56 -243
30 -29 41 -34 84 -34 43 0 52 4 78 33 17 19 40 67 54 110 26 83 48 101 74 61
19 -30 19 -91 0 -137 l-15 -35 32 -11 c80 -28 94 -10 92 124 -2 91 -27 160
-71 194 -38 30 -112 29 -150 -3z"/>
<path d="M5962 2348 c-59 -121 -69 -213 -31 -274 26 -43 47 -54 100 -54 50 0
95 30 130 87 43 69 80 92 93 57 11 -30 6 -53 -28 -117 l-34 -65 40 -26 c49
-32 55 -28 92 53 54 120 45 241 -22 286 -69 47 -128 25 -204 -77 -47 -62 -58
-70 -75 -56 -20 16 -15 47 15 109 l27 55 -33 22 c-42 28 -56 28 -70 0z"/>
<path d="M5775 1898 c-28 -38 -69 -95 -92 -126 -23 -31 -43 -63 -43 -69 0 -7
12 -20 28 -30 15 -9 39 -26 53 -38 14 -11 36 -27 48 -35 30 -20 163 -117 177
-128 43 -36 45 -35 129 80 120 165 116 157 97 178 -10 9 -27 22 -39 29 -21 11
-27 6 -78 -64 -31 -41 -62 -75 -68 -75 -7 0 -22 6 -32 14 -19 14 -19 16 -3 48
10 18 32 52 50 76 l32 43 -29 24 c-17 13 -35 24 -42 25 -11 0 -37 -29 -83 -94
-14 -20 -29 -36 -33 -36 -18 0 -54 35 -45 45 23 26 98 136 98 144 0 4 -17 20
-38 33 l-37 25 -50 -69z"/>
<path d="M5446 1545 c-27 -14 -57 -32 -66 -40 -9 -8 -20 -15 -25 -15 -5 0 -15
-7 -24 -15 -9 -8 -31 -27 -48 -41 -18 -14 -33 -30 -33 -35 0 -5 16 -32 36 -61
55 -77 136 -199 164 -246 14 -23 31 -42 39 -42 11 0 111 59 111 66 0 2 -21 33
-46 70 -25 37 -42 70 -37 75 5 5 22 11 39 15 25 5 38 -1 85 -40 53 -43 83 -56
91 -38 2 4 23 20 47 36 l44 28 -33 26 c-19 14 -45 36 -58 49 -14 13 -42 28
-63 35 -35 10 -38 13 -31 37 4 14 7 43 6 65 0 31 -6 44 -35 67 -43 36 -95 37
-163 4z m81 -121 c13 -20 11 -25 -21 -59 -40 -42 -53 -39 -83 19 -15 28 -14
31 7 48 30 24 78 20 97 -8z"/>
<path d="M3782 1348 l-109 -193 71 -40 c39 -23 105 -60 147 -83 l76 -42 27 40
26 40 -25 15 c-14 8 -37 23 -52 32 -16 10 -41 24 -58 33 -36 18 -41 37 -17 68
l17 22 35 -20 c57 -33 121 -63 124 -59 1 2 12 20 23 40 l20 36 -21 13 c-11 8
-46 27 -76 43 -30 16 -57 31 -58 33 -2 1 4 16 14 32 l17 30 47 -28 c59 -35
120 -64 124 -59 1 2 12 21 24 41 l21 38 -22 13 c-12 7 -31 18 -42 25 -11 7
-35 19 -54 28 -19 8 -40 22 -48 30 -8 8 -19 14 -24 14 -6 0 -27 11 -47 25 -20
14 -40 25 -44 25 -4 0 -56 -87 -116 -192z"/>
<path d="M4260 1337 c0 -16 42 -120 82 -204 9 -19 5 -29 -28 -70 -21 -26 -60
-70 -86 -98 -53 -56 -52 -58 36 -74 67 -12 84 -4 106 50 7 16 16 29 21 29 4 0
11 10 15 22 6 21 7 21 20 4 7 -10 19 -43 25 -73 9 -40 18 -57 34 -63 26 -10
145 -28 145 -22 0 2 -7 16 -14 30 -8 15 -33 69 -55 121 -40 90 -40 94 -23 115
24 29 82 93 115 128 15 16 27 32 27 36 0 4 -32 13 -72 19 -68 11 -72 10 -89
-10 -10 -12 -19 -26 -19 -32 0 -5 -11 -23 -24 -39 l-24 -29 -23 71 -22 70 -46
6 c-25 4 -58 9 -73 12 -16 3 -28 4 -28 1z"/>
<path d="M4911 1319 c-79 -15 -133 -40 -126 -58 4 -9 13 -52 21 -95 7 -44 18
-94 24 -110 5 -17 16 -67 25 -110 8 -44 18 -83 22 -86 5 -4 35 0 69 7 l61 14
-13 57 c-20 86 -20 88 34 102 63 17 124 56 145 92 36 63 6 166 -54 187 -37 13
-144 13 -208 0z m130 -100 c25 -25 22 -46 -11 -70 -46 -32 -69 -33 -80 -4 -16
42 -12 83 8 88 38 10 63 6 83 -14z"/>
</g>
</svg>
